:SAMPLES-PER-SECOND 30
:FULLY-SPECIFIED
:DEGREES
358
root  21.452 35.3626 11.4922 -172.201 28.3876 173.659
RightUpLeg  0.465378 -18.8579 7.44952
RightLeg  36.1839 -3.27938 -2.75016
RightFoot  -27.196 0.267909 3.59177
RightToes  0.000482159 0.542163 -0.142577
Spine  39.6074 5.70052 7.50227
Spine1  -5.87196 11.815 -25.5406
HEad  -45.1399 36.489 -36.5208
LeftShoulder1  4.9992 -8.32581 -36.1447
LeftArm  -41.7056 41.6499 2.90619
LeftForeArm  48.5806 -43.6706 -7.46377
LeftHand  -0.25398 0.0180481 5.50724
RightShoulder  4.02015 8.95011 26.1801
RightArm  -9.82881 15.2892 27.0804
RightForeArm  124.606 77.1557 127.901
RightHand  -2.53914 6.99388 -23.8562
LeftUpLeg  -62.0943 27.0445 -40.2761
LeftLeg  37.3854 0.828186 0.984755
LeftFoot  -7.70301 0.339746 -9.52677
LeftToes  1.06246e-005 4.65855e-005 -8.18502e-006
359
root  24.2878 35.6558 9.71082 -171.976 24.3658 176.129
RightUpLeg  2.26922 -24.9952 8.38727
RightLeg  39.5634 1.44235 1.04892
RightFoot  -7.44699 -0.322925 7.66326
RightToes  0.000482159 0.542163 -0.142577
Spine  36.2601 5.83373 7.78833
Spine1  -2.95812 12.8228 -26.1697
HEad  -44.1691 38.4435 -33.7927
LeftShoulder1  5.55139 -8.72559 -39.1437
LeftArm  -42.7315 40.5291 0.841059
LeftForeArm  49.2894 -47.8361 -8.8256
LeftHand  -0.25398 0.0180481 5.50724
RightShoulder  4.88313 9.84587 30.629
RightArm  -3.68064 6.45749 27.4509
RightForeArm  121.976 78.7415 118.057
RightHand  -2.14167 6.17131 -21.6708
LeftUpLeg  -56.4171 30.8986 -41.8168
LeftLeg  31.3182 1.72277 1.44794
LeftFoot  -8.38772 0.277143 -8.51829
LeftToes  1.06246e-005 4.65855e-005 -8.18502e-006
360
root  26.8467 35.685 8.17165 -173.464 20.7431 177.594
RightUpLeg  -1.09755 -28.0837 7.7861
RightLeg  51.8294 0.573992 0.11335
RightFoot  6.59739 -1.59634 10.629
RightToes  0.000482159 0.542163 -0.142577
Spine  35.7036 5.48062 7.04463
Spine1  0.039187 13.1604 -25.8266
HEad  -46.8618 39.9212 -34.2225
LeftShoulder1  6.48726 -9.5457 -43.2135
LeftArm  -43.7798 37.3229 -1.91178
LeftForeArm  50.3989 -51.0396 -9.99608
LeftHand  -0.25398 0.0180481 5.50724
RightShoulder  5.46096 10.4691 33.1513
RightArm  -0.678403 1.45702 28.5654
RightForeArm  94.8868 80.3026 84.4202
RightHand  -2.14024 6.54792 -20.9915
LeftUpLeg  -47.7968 29.8011 -35.7485
LeftLeg  29.9851 5.75918 3.96923
LeftFoot  -10.8377 0.0869807 0.209984
LeftToes  1.06246e-005 4.65855e-005 -8.18502e-006
361
root  29.2182 35.3808 6.99502 -175.007 16.3561 177.951
RightUpLeg  -9.77544 -28.6685 6.819
RightLeg  68.5313 -1.77106 -5.93776
RightFoot  7.75377 -1.71035 10.396
RightToes  0.000482159 0.542163 -0.142577
Spine  37.9 4.86587 5.24453
Spine1  0.648277 11.78 -24.034
HEad  -51.6215 40.9055 -37.5888
LeftShoulder1  7.55362 -10.5059 -47.0296
LeftArm  -42.2931 31.7271 -4.48953
LeftForeArm  52.2156 -52.6257 -10.5522
LeftHand  -0.25398 0.0180481 5.50724
RightShoulder  5.61474 10.7124 33.55
RightArm  -1.29171 -2.00066 30.0119
RightForeArm  63.6732 78.1152 53.5787
RightHand  -2.97036 8.93155 -24.0626
LeftUpLeg  -41.7513 23.1684 -28.2578
LeftLeg  34.1039 10.5061 7.96636
LeftFoot  -13.9298 0.329535 11.1167
LeftToes  1.06246e-005 4.65855e-005 -8.18502e-006
362
root  31.5532 34.9959 6.11819 -175.675 9.70706 178.183
RightUpLeg  -22.3353 -27.4451 6.09901
RightLeg  82.4084 -1.00209 -11.928
RightFoot  3.46248 -0.838118 6.57071
RightToes  0.000482159 0.542163 -0.142577
Spine  42.127 3.59187 4.41319
Spine1  -0.525631 9.19649 -20.8845
HEad  -57.0951 41.0463 -41.956
LeftShoulder1  8.88415 -11.8764 -50.4
LeftArm  -37.8027 22.8736 -6.16856
LeftForeArm  53.5416 -51.926 -10.1723
LeftHand  -0.25398 0.0180481 5.50724
RightShoulder  5.6841 10.9193 33.4624
RightArm  -5.69318 -5.98246 29.6597
RightForeArm  43.6477 75.2479 42.2151
RightHand  -4.30879 11.75 -29.0383
LeftUpLeg  -40.6552 16.1644 -22.9512
LeftLeg  41.8536 11.8904 11.5257
LeftFoot  -15.9022 0.745438 16.4568
LeftToes  1.06246e-005 4.65855e-005 -8.18502e-006
363
root  33.8906 34.6714 5.40652 -176.518 1.43193 178.493
RightUpLeg  -33.4119 -23.8334 2.2089
RightLeg  88.6677 0.432545 -13.5755
RightFoot  -0.388144 -0.353336 3.79667
RightToes  0.000482159 0.542163 -0.142577
Spine  47.5143 1.82983 4.77145
Spine1  -0.730889 6.94831 -16.6148
HEad  -63.3633 40.7843 -46.2207
LeftShoulder1  10.4386 -13.6212 -53.1519
LeftArm  -31.5649 10.7026 -7.89251
LeftForeArm  54.144 -49.645 -9.19659
LeftHand  -0.25398 0.0180481 5.50724
RightShoulder  5.76883 11.164 33.3841
RightArm  -12.2352 -9.61163 27.4229
RightForeArm  28.4354 73.0922 37.8704
RightHand  -5.16185 12.933 -32.3468
LeftUpLeg  -40.9114 10.8774 -18.3981
LeftLeg  49.3839 9.82584 12.4197
LeftFoot  -16.2806 0.755874 15.1704
LeftToes  1.06246e-005 4.65855e-005 -8.18502e-006
364
root  36.3579 34.4727 4.65865 -177.761 -7.23433 178.818
RightUpLeg  -38.7982 -19.8729 -6.15411
RightLeg  86.8275 -0.0330067 -13.7188
RightFoot  -3.89528 -0.323906 4.50718
RightToes  0.000482159 0.542163 -0.142577
Spine  52.6987 0.474127 4.97244
Spine1  0.311764 5.23813 -10.8614
HEad  -70.0507 41.0874 -50.6461
LeftShoulder1  11.5059 -15.0885 -53.9469
LeftArm  -24.2306 -2.40747 -11.8115
LeftForeArm  55.9478 -48.8264 -8.76126
LeftHand  -0.25398 0.0180481 5.50724
RightShoulder  5.61813 11.1452 32.4011
RightArm  -18.713 -11.8228 25.2455
RightForeArm  19.897 71.3806 34.5173
RightHand  -5.0606 12.3239 -32.7244
LeftUpLeg  -40.1378 6.1699 -13.4418
LeftLeg  54.2962 6.5851 10.2329
LeftFoot  -16.7433 0.612092 10.8463
LeftToes  1.06246e-005 4.65855e-005 -8.18502e-006
